HIERARCHY
ROOT Hips
{
	OFFSET -0.001795 -0.223333 0.028219
	CHANNELS 6 Xposition Yposition Zposition Zrotation Yrotation Xrotation
	JOINT LeftUpLeg
	{
		OFFSET 0.069520 -0.091406 -0.006815
		CHANNELS 3 Zrotation Yrotation Xrotation
		JOINT LeftLeg
		{
			OFFSET 0.034277 -0.375199 -0.004496
			CHANNELS 3 Zrotation Yrotation Xrotation
			JOINT LeftFoot
			{
				OFFSET -0.013596 -0.397961 -0.043693
				CHANNELS 3 Zrotation Yrotation Xrotation
				JOINT LeftToe
				{
					OFFSET 0.026358 -0.055791 0.119288
					CHANNELS 3 Zrotation Yrotation Xrotation
					End Site
					{
						OFFSET 0.000000 0.000000 0.000000
					}
				}
			}
		}
	}
	JOINT RightUpLeg
	{
		OFFSET -0.067670 -0.090522 -0.004320
		CHANNELS 3 Zrotation Yrotation Xrotation
		JOINT RightLeg
		{
			OFFSET -0.038290 -0.382569 -0.008850
			CHANNELS 3 Zrotation Yrotation Xrotation
			JOINT RightFoot
			{
				OFFSET 0.015774 -0.398415 -0.042312
				CHANNELS 3 Zrotation Yrotation Xrotation
				JOINT RightToe
				{
					OFFSET -0.025372 -0.048144 0.123348
					CHANNELS 3 Zrotation Yrotation Xrotation
					End Site
					{
						OFFSET 0.000000 0.000000 0.000000
					}
				}
			}
		}
	}
	JOINT Spine
	{
		OFFSET -0.002533 0.108963 -0.026696
		CHANNELS 3 Zrotation Yrotation Xrotation
		JOINT Spine1
		{
			OFFSET 0.005487 0.135180 0.001092
			CHANNELS 3 Zrotation Yrotation Xrotation
			JOINT Spine2
			{
				OFFSET 0.001457 0.052922 0.025425
				CHANNELS 3 Zrotation Yrotation Xrotation
				JOINT Neck
				{
					OFFSET -0.002778 0.213870 -0.042857
					CHANNELS 3 Zrotation Yrotation Xrotation
					JOINT Head
					{
						OFFSET 0.005152 0.064970 0.051349
						CHANNELS 3 Zrotation Yrotation Xrotation
						End Site
						{
							OFFSET 0.000000 0.000000 0.000000
						}
					}
				}
				JOINT LeftShoulder
				{
					OFFSET 0.078845 0.121749 -0.034090
					CHANNELS 3 Zrotation Yrotation Xrotation
					JOINT LeftArm
					{
						OFFSET 0.090977 0.030469 -0.008868
						CHANNELS 3 Zrotation Yrotation Xrotation
						JOINT LeftForeArm
						{
							OFFSET 0.259612 -0.012772 -0.027456
							CHANNELS 3 Zrotation Yrotation Xrotation
							JOINT LeftHand
							{
								OFFSET 0.249234 0.008986 -0.001171
								CHANNELS 3 Zrotation Yrotation Xrotation
								End Site
								{
									OFFSET 0.000000 0.000000 0.000000
								}
							}
						}
					}
				}
				JOINT RightShoulder
				{
					OFFSET -0.081759 0.118833 -0.038615
					CHANNELS 3 Zrotation Yrotation Xrotation
					JOINT RightArm
					{
						OFFSET -0.096012 0.032551 -0.009143
						CHANNELS 3 Zrotation Yrotation Xrotation
						JOINT RightForeArm
						{
							OFFSET -0.253742 -0.013329 -0.021401
							CHANNELS 3 Zrotation Yrotation Xrotation
							JOINT RightHand
							{
								OFFSET -0.255298 0.007772 -0.005559
								CHANNELS 3 Zrotation Yrotation Xrotation
								End Site
								{
									OFFSET 0.000000 0.000000 0.000000
								}
							}
						}
					}
				}
			}
		}
	}
}
MOTION
Frames: 14
Frame Time: 0.050000
0.000000 0.923795 0.000000 0.201739 6.418365 -27.163381 2.259960 1.336631 29.950929 -0.156268 0.178265 -5.064858 1.275578 4.559867 4.016534 0.000000 0.000000 0.000000 -5.733046 -2.188266 27.320300 1.537325 -0.164318 0.832066 -4.625116 -12.827643 4.820986 0.000000 0.000000 0.000000 2.655428 -4.941513 55.168465 -66.329922 -22.315495 -101.779991 19.075350 -63.422663 85.745375 3.859746 -23.632101 -34.132066 0.000000 0.000000 0.000000 -38.620928 -8.194949 32.927295 -32.302501 -26.548839 -12.490931 4.809532 -25.879454 -2.334129 0.000000 0.000000 0.000000 25.654493 13.364756 -20.630439 47.571417 -9.578749 -13.292568 7.996683 22.055468 0.541146 0.000000 0.000000 0.000000
0.000865 0.922485 -0.001220 0.271079 5.959502 -27.373306 2.463876 1.345779 30.182238 -0.723470 0.213011 -5.060863 1.484786 4.806302 3.690471 0.000000 0.000000 0.000000 -5.841771 -2.136125 27.503804 1.454166 -0.156433 0.665889 -4.480931 -12.451665 4.424000 0.000000 0.000000 0.000000 3.375442 -4.829078 52.937228 -76.662485 -25.670033 -98.843875 27.343222 -71.974191 79.415257 4.957522 -25.521615 -33.522418 0.000000 0.000000 0.000000 -36.451216 -6.742394 33.959311 -34.230201 -28.236256 -11.181258 5.289689 -26.446175 -2.694469 0.000000 0.000000 0.000000 23.632570 14.874108 -25.294471 49.613914 -15.920707 -13.873374 8.440911 22.653689 -0.285560 0.000000 0.000000 0.000000
0.001330 0.920988 -0.001720 0.308478 5.647814 -28.437078 3.119537 1.218063 30.040232 -1.893239 0.247774 -2.643755 1.722169 4.857546 2.713014 0.000000 0.000000 0.000000 -6.096128 -2.084459 27.879429 1.567402 -0.138644 1.967894 -4.378741 -12.147088 3.786131 0.000000 0.000000 0.000000 3.765184 -4.797433 52.330682 -83.596696 -27.761419 -97.294242 34.928855 -77.987416 73.605529 4.178576 -26.024006 -35.536358 0.000000 0.000000 0.000000 -34.327187 -6.746021 35.037008 -35.047550 -29.295164 -9.856781 5.578295 -26.093211 -3.055574 0.000000 0.000000 0.000000 21.526047 15.405701 -28.145671 49.419192 -19.744851 -14.429844 11.095080 20.542636 -0.513163 0.000000 0.000000 0.000000
0.001784 0.917265 -0.001711 0.534351 5.639897 -29.251016 2.773394 1.323128 30.479784 -1.696052 0.215244 -1.730979 2.071264 4.997517 1.401642 0.000000 0.000000 0.000000 -6.108727 -2.075792 27.785814 0.953670 -0.001609 3.813839 -4.567016 -12.398166 2.281247 0.000000 0.000000 0.000000 4.861034 -4.635600 48.337983 -113.018102 -18.502003 -79.558010 141.741819 -68.758323 -39.812079 4.312506 -16.211848 -33.325852 0.000000 0.000000 0.000000 -31.958878 -2.779753 51.763368 -29.186966 -42.234384 -6.744809 14.466311 -23.799298 -5.461147 0.000000 0.000000 0.000000 15.886265 16.506229 -36.283531 49.566426 -29.089946 -16.084008 13.635074 19.614132 -2.060974 0.000000 0.000000 0.000000
0.001963 0.911860 -0.001786 0.478735 4.174015 -30.342016 2.870746 1.472372 30.243819 -1.565931 0.141713 1.214407 3.150823 6.319953 -0.861900 0.000000 0.000000 0.000000 -5.876497 -1.920104 27.061118 0.635562 0.150151 6.921006 -4.431225 -11.620127 -0.007369 0.000000 0.000000 0.000000 5.699956 -4.630536 47.784617 -125.288576 -11.702458 -73.909483 147.603207 -56.453177 -51.039788 4.146148 -10.661510 -31.294487 0.000000 0.000000 0.000000 -30.427402 -0.366405 59.090962 -24.212559 -46.927669 -7.511761 16.197247 -22.564890 -6.027060 0.000000 0.000000 0.000000 13.564377 15.910886 -37.630432 49.149621 -32.666121 -18.448453 16.140087 18.127651 -2.297069 0.000000 0.000000 0.000000
0.002058 0.900775 -0.002525 0.482915 3.450535 -31.328066 2.882739 1.536926 29.729189 -1.513708 0.058343 4.354531 4.352141 7.352198 -5.158962 0.000000 0.000000 0.000000 -5.594443 -1.754852 24.852791 0.238742 0.429387 12.796395 -4.857371 -11.892314 -4.071966 0.000000 0.000000 0.000000 6.390936 -4.675276 47.307709 -133.051842 -6.053131 -70.706837 149.348535 -48.048588 -56.439267 4.846603 -7.564832 -31.831526 0.000000 0.000000 0.000000 -28.844875 0.782802 63.007207 -22.443754 -48.561512 -7.624687 17.294253 -22.489857 -6.516628 0.000000 0.000000 0.000000 12.301985 16.300052 -38.020291 48.650826 -34.802727 -19.758808 16.811696 16.261637 -2.458487 0.000000 0.000000 0.000000
0.002033 0.887651 -0.004818 0.934524 2.800791 -32.266481 2.315640 1.713061 28.734564 -1.405636 -0.063571 8.210228 5.618198 8.748878 -9.991443 0.000000 0.000000 0.000000 -5.988919 -1.411921 21.504026 0.245885 0.717766 20.521036 -5.291070 -12.137491 -8.040069 0.000000 0.000000 0.000000 6.396732 -4.585851 47.491622 -139.548097 0.493151 -69.417173 150.781219 -40.647022 -61.574593 5.169808 -4.811514 -31.515495 0.000000 0.000000 0.000000 -27.691193 2.375328 67.979814 -17.424301 -51.593926 -9.519915 19.155965 -20.972817 -6.793146 0.000000 0.000000 0.000000 10.364102 17.056680 -38.392362 48.598455 -35.807461 -21.270983 18.557707 16.245582 -2.808079 0.000000 0.000000 0.000000
0.001935 0.863424 -0.009205 1.838433 0.707516 -33.862664 2.029000 1.882090 25.980939 -2.695630 0.064775 16.962807 7.475443 12.166622 -18.000418 0.000000 0.000000 0.000000 -6.739878 -0.921439 17.091269 0.208519 1.361469 30.859411 -5.819032 -11.434183 -14.192246 0.000000 0.000000 0.000000 7.587282 -4.792075 49.593934 -144.973592 1.419360 -68.443941 154.359127 -37.058018 -64.208726 5.400705 -4.770060 -34.636124 0.000000 0.000000 0.000000 -25.990636 3.868790 70.132313 -13.442331 -52.392364 -10.075788 18.288755 -21.021378 -6.822988 0.000000 0.000000 0.000000 8.898182 17.908514 -40.375656 48.196148 -38.036531 -22.710738 19.551633 16.362186 -3.081711 0.000000 0.000000 0.000000
0.000852 0.835773 -0.015650 2.274096 -0.323476 -36.063120 1.786112 1.817454 23.158287 -3.208542 0.159934 26.660290 8.640030 15.062259 -25.561087 0.000000 0.000000 0.000000 -7.985323 -0.602669 12.086281 2.968198 0.816662 41.476547 -7.324051 -16.306034 -15.418618 0.000000 0.000000 0.000000 6.119830 -4.479106 53.396683 -160.758621 1.918760 -67.176757 163.766620 -23.299342 -70.154200 10.411534 4.764022 -35.035739 0.000000 0.000000 0.000000 -14.015913 6.761465 89.809905 14.460359 -61.988174 -20.760254 26.226571 -14.225942 -7.448332 0.000000 0.000000 0.000000 4.357653 20.596017 -61.840421 35.864057 -56.861739 -23.054103 25.753205 11.953657 -4.163807 0.000000 0.000000 0.000000
-0.001304 0.798192 -0.023886 2.540158 -3.038994 -37.718208 2.776247 1.440113 17.855812 -4.990712 1.420144 39.979076 9.343035 19.175329 -32.457539 0.000000 0.000000 0.000000 -9.046981 -0.315443 3.768425 7.299895 -0.504190 51.754699 -11.466225 -28.441118 -7.930399 0.000000 0.000000 0.000000 9.264869 -5.401420 55.038828 159.362344 42.321766 -74.064431 143.335582 21.806273 -84.402990 11.013535 13.835478 -30.128605 0.000000 0.000000 0.000000 -10.013310 8.856496 100.965147 32.875453 -62.148853 -31.656575 27.605504 -8.859711 -6.186314 0.000000 0.000000 0.000000 2.073556 20.632961 -63.775747 33.004683 -59.529627 -23.620916 27.416195 11.162478 -4.783222 0.000000 0.000000 0.000000
-0.004463 0.761749 -0.030301 2.925015 -6.288198 -40.100268 3.693985 0.936882 10.455901 -5.293768 3.462650 57.006825 10.028541 22.914372 -27.666510 0.000000 0.000000 0.000000 -8.999718 -0.106548 -3.545238 10.104549 -1.050923 54.982116 -19.164115 -36.963114 15.060085 0.000000 0.000000 0.000000 17.060551 -8.965134 61.955328 159.759182 47.055782 -69.795025 145.855574 18.521440 -89.008163 22.646901 26.826023 -16.766380 0.000000 0.000000 0.000000 -11.561905 10.139239 106.610068 30.505191 -57.405014 -29.466019 31.096311 -8.995766 -7.394115 0.000000 0.000000 0.000000 0.798047 20.606212 -81.646904 -17.557534 -66.809667 13.612501 32.188262 6.180452 -5.457921 0.000000 0.000000 0.000000
-0.009083 0.714940 -0.029101 3.857995 -9.219847 -44.160249 4.923971 0.490247 1.536000 -5.091761 6.398698 72.866666 10.471368 21.627649 -7.164453 0.000000 0.000000 0.000000 -10.873240 -0.057569 -8.493958 12.524328 -1.425108 53.334253 -27.421235 -41.588419 31.315884 0.000000 0.000000 0.000000 36.440597 -13.102495 57.887878 109.317611 74.695669 -113.774257 128.099783 21.628438 -102.754707 37.353603 28.227048 4.870778 0.000000 0.000000 0.000000 -22.310876 8.116928 74.000605 -12.791185 -43.999379 -7.164248 17.901971 -25.671591 -7.757609 0.000000 0.000000 0.000000 17.504921 16.717986 -43.646838 19.260388 -45.656048 -5.591196 27.017458 18.596307 -0.441403 0.000000 0.000000 0.000000
-0.016451 0.661615 -0.014015 5.323969 -12.841250 -52.052292 8.050755 0.871804 -1.529763 -3.119234 7.967467 83.560226 9.832715 19.865364 -1.197550 0.000000 0.000000 0.000000 -11.965564 -0.112088 -8.513337 11.847612 0.110281 48.911234 -15.379427 -31.525091 14.258842 0.000000 0.000000 0.000000 83.983057 17.782884 20.627955 0.806041 31.792099 129.784828 104.756214 -28.201791 -97.249726 55.995649 17.834465 16.398332 0.000000 0.000000 0.000000 -20.878746 0.729525 38.918695 -30.450782 -17.475557 -1.566678 4.156587 -33.324309 -0.757592 0.000000 0.000000 0.000000 31.987056 16.359617 -28.751495 14.907622 -33.373413 0.523453 21.292384 26.244601 4.045304 0.000000 0.000000 0.000000
-0.029942 0.590994 0.016244 6.998031 -13.713909 -58.666651 9.719675 1.283031 -6.027726 1.542210 3.854278 91.915931 9.855789 19.105228 -10.806842 0.000000 0.000000 0.000000 -16.836543 -0.419290 -7.608931 12.106802 0.426029 46.487553 -8.298682 -17.187834 -8.247555 0.000000 0.000000 0.000000 47.141935 45.161238 -39.120333 -4.337951 -8.301612 127.634937 43.732218 -56.307685 -43.302573 20.638713 -2.602286 -10.961257 0.000000 0.000000 0.000000 -13.071482 -4.819505 11.712442 -33.430247 -9.530044 -1.261895 -1.501371 -31.946461 3.027219 0.000000 0.000000 0.000000 28.460702 15.173677 -24.270523 21.816666 -23.977723 -0.655815 13.357222 35.960853 2.269033 0.000000 0.000000 0.000000
